<?xml version="1.0" encoding="UTF-8" standalone="no"?><!DOCTYPE svg PUBLIC "-//W3C//DTD SVG 1.1//EN" "http://www.w3.org/Graphics/SVG/1.1/DTD/svg11.dtd"><svg width="100%" height="100%" viewBox="0 0 54 54" version="1.1" xmlns="http://www.w3.org/2000/svg" xmlns:xlink="http://www.w3.org/1999/xlink" xml:space="preserve" xmlns:serif="http://www.serif.com/" style="fill-rule:evenodd;clip-rule:evenodd;stroke-linecap:round;stroke-linejoin:round;stroke-miterlimit:1.5;"><g id="Foodie-q"><circle cx="25.38" cy="25.572" r="23.049" style="fill:#22715d;stroke:#fff;stroke-width:3.48px;"/><g><path d="M23.056,23.243c1.868,-1.925 5.882,-1.066 8.959,1.918c3.077,2.984 4.059,6.97 2.191,8.896c-1.868,1.926 -5.882,1.066 -8.959,-1.918c-3.077,-2.984 -4.059,-6.97 -2.191,-8.896Z" style="fill:#fff;"/><path d="M34.056,32.897l-0.962,0.933c0,0 11.486,12.92 15.719,17.68c0.4,0.451 0.968,0.716 1.571,0.733c0.602,0.018 1.185,-0.213 1.611,-0.639c0.001,-0.001 0.001,-0.001 0.002,-0.002c0.418,-0.418 0.644,-0.991 0.624,-1.582c-0.02,-0.591 -0.284,-1.148 -0.729,-1.537c-2.186,-1.909 -5.677,-4.96 -5.677,-4.96l-12.159,-10.626Z" style="fill:#fff;"/></g></g></svg>