<?xml version="1.0" encoding="UTF-8" standalone="no"?><!DOCTYPE svg PUBLIC "-//W3C//DTD SVG 1.1//EN" "http://www.w3.org/Graphics/SVG/1.1/DTD/svg11.dtd"><svg width="100%" height="100%" viewBox="0 0 54 54" version="1.1" xmlns="http://www.w3.org/2000/svg" xmlns:xlink="http://www.w3.org/1999/xlink" xml:space="preserve" xmlns:serif="http://www.serif.com/" style="fill-rule:evenodd;clip-rule:evenodd;stroke-linecap:round;stroke-linejoin:round;stroke-miterlimit:1.5;"><g id="Foodie-q"><circle cx="25.3" cy="25.644" r="23.049" style="fill:#fff;stroke:#22715d;stroke-width:3.48px;"/><g><path d="M22.976,23.315c1.868,-1.925 5.882,-1.066 8.959,1.918c3.077,2.985 4.059,6.971 2.191,8.896c-1.868,1.926 -5.882,1.067 -8.959,-1.917c-3.077,-2.985 -4.059,-6.971 -2.191,-8.897Z" style="fill:#22715d;"/><path d="M33.975,32.969l-0.961,0.933c0,0 11.486,12.92 15.719,17.68c0.4,0.451 0.968,0.716 1.571,0.734c0.602,0.017 1.185,-0.214 1.611,-0.64c0,-0.001 0.001,-0.001 0.001,-0.002c0.419,-0.418 0.645,-0.991 0.625,-1.582c-0.02,-0.591 -0.284,-1.147 -0.729,-1.536c-2.186,-1.91 -5.677,-4.961 -5.677,-4.961l-12.16,-10.626Z" style="fill:#22715d;"/></g></g></svg>