<?xml version="1.0" encoding="UTF-8" standalone="no"?><!DOCTYPE svg PUBLIC "-//W3C//DTD SVG 1.1//EN" "http://www.w3.org/Graphics/SVG/1.1/DTD/svg11.dtd"><svg width="100%" height="100%" viewBox="0 0 53 53" version="1.1" xmlns="http://www.w3.org/2000/svg" xmlns:xlink="http://www.w3.org/1999/xlink" xml:space="preserve" xmlns:serif="http://www.serif.com/" style="fill-rule:evenodd;clip-rule:evenodd;stroke-linejoin:round;stroke-miterlimit:1.41421;"><path d="M29.387,0.547c-1.696,-0.167 -3.405,-0.167 -5.101,0l-0.864,5.219c-1.354,0.224 -2.683,0.58 -3.968,1.063l-3.358,-4.088c-1.552,0.704 -3.032,1.558 -4.418,2.551l1.862,4.952c-1.061,0.871 -2.034,1.844 -2.905,2.905l-4.952,-1.862c-0.992,1.386 -1.847,2.866 -2.55,4.418l4.088,3.357c-0.484,1.285 -0.84,2.615 -1.064,3.969l-5.219,0.864c-0.167,1.696 -0.167,3.405 0,5.101l5.219,0.863c0.224,1.355 0.58,2.684 1.064,3.969l-4.088,3.357c0.703,1.553 1.558,3.033 2.55,4.418l4.952,-1.861c0.871,1.061 1.844,2.034 2.905,2.905l-1.862,4.951c1.386,0.993 2.866,1.848 4.418,2.551l3.358,-4.088c1.285,0.484 2.614,0.84 3.968,1.064l0.864,5.218c1.696,0.167 3.405,0.167 5.101,0l0.864,-5.218c1.354,-0.224 2.684,-0.58 3.968,-1.064l3.358,4.088c1.552,-0.703 3.032,-1.558 4.418,-2.551l-1.862,-4.951c1.061,-0.871 2.034,-1.844 2.905,-2.905l4.952,1.861c0.993,-1.385 1.847,-2.865 2.55,-4.418l-4.088,-3.357c0.484,-1.285 0.84,-2.614 1.064,-3.969l5.219,-0.863c0.167,-1.696 0.167,-3.405 0,-5.101l-5.219,-0.864c-0.224,-1.354 -0.58,-2.684 -1.064,-3.969l4.088,-3.357c-0.703,-1.552 -1.557,-3.032 -2.55,-4.418l-4.952,1.862c-0.871,-1.061 -1.844,-2.034 -2.905,-2.905l1.862,-4.952c-1.386,-0.993 -2.866,-1.847 -4.418,-2.551l-3.358,4.088c-1.284,-0.483 -2.614,-0.839 -3.968,-1.063l-0.864,-5.219Zm-2.55,16.494c5.19,0 9.404,4.214 9.404,9.404c0,5.191 -4.214,9.405 -9.404,9.405c-5.191,0 -9.405,-4.214 -9.405,-9.405c0,-5.19 4.214,-9.404 9.405,-9.404Z" style="fill:#13a180;"/></svg>