<?xml version="1.0" encoding="UTF-8" standalone="no"?><!DOCTYPE svg PUBLIC "-//W3C//DTD SVG 1.1//EN" "http://www.w3.org/Graphics/SVG/1.1/DTD/svg11.dtd"><svg width="100%" height="100%" viewBox="0 0 57 42" version="1.1" xmlns="http://www.w3.org/2000/svg" xmlns:xlink="http://www.w3.org/1999/xlink" xml:space="preserve" xmlns:serif="http://www.serif.com/" style="fill-rule:evenodd;clip-rule:evenodd;stroke-linecap:round;stroke-linejoin:round;stroke-miterlimit:1.5;"><g id="recipe-book"><path id="_-Rectangle-" serif:id="(Rectangle)" d="M55.831,8.549c-27.577,-11.605 -40.697,-5.187 -54.804,0l0,31.954c9.216,-3.175 17.744,-3.03 26.025,-1.693l2.584,0c9.506,-1.938 18.262,-1.453 26.195,1.693l0,-31.954Z" style="fill:#22715d;stroke:#fff;stroke-width:1.5px;"/><path d="M27.052,2.763c-7.816,-2.32 -15.617,-2.302 -23.406,0l0,32.906c7.797,-2.85 15.599,-2.94 23.406,0l0,-32.906Z" style="fill:#22715d;stroke:#fff;stroke-width:2px;"/><path d="M53.042,2.763c-7.816,-2.32 -15.618,-2.302 -23.406,0l0,32.906c7.797,-2.85 15.599,-2.94 23.406,0l0,-32.906Z" style="fill:#22715d;stroke:#fff;stroke-width:2px;"/><rect x="27.052" y="1.03" width="2.584" height="38.346" style="fill:#22715d;stroke:#fff;stroke-width:1.5px;"/><path d="M7.588,9.529c5.169,-1.203 10.312,-1.339 15.424,-0.187" style="fill:none;stroke:#fefefe;stroke-width:1.5px;"/><path d="M7.588,15.736c5.169,-1.203 10.312,-1.339 15.424,-0.187" style="fill:none;stroke:#fefefe;stroke-width:1.5px;"/><path d="M7.686,21.943c5.169,-1.203 10.312,-1.339 15.424,-0.187" style="fill:none;stroke:#fefefe;stroke-width:1.5px;"/><path d="M7.588,28.15c5.169,-1.203 10.312,-1.339 15.424,-0.187" style="fill:none;stroke:#fefefe;stroke-width:1.5px;"/><path d="M33.578,9.529c5.169,-1.203 10.312,-1.339 15.424,-0.187" style="fill:none;stroke:#fefefe;stroke-width:1.5px;"/><path d="M33.578,15.736c5.169,-1.203 10.312,-1.339 15.424,-0.187" style="fill:none;stroke:#fefefe;stroke-width:1.5px;"/><path d="M33.676,21.943c5.169,-1.203 10.312,-1.339 15.424,-0.187" style="fill:none;stroke:#fefefe;stroke-width:1.5px;"/><path d="M33.578,28.15c5.169,-1.203 10.312,-1.339 15.424,-0.187" style="fill:none;stroke:#fefefe;stroke-width:1.5px;"/></g></svg>