<?xml version="1.0" encoding="UTF-8" standalone="no"?><!DOCTYPE svg PUBLIC "-//W3C//DTD SVG 1.1//EN" "http://www.w3.org/Graphics/SVG/1.1/DTD/svg11.dtd"><svg width="100%" height="100%" viewBox="0 0 61 53" version="1.1" xmlns="http://www.w3.org/2000/svg" xmlns:xlink="http://www.w3.org/1999/xlink" xml:space="preserve" xmlns:serif="http://www.serif.com/" style="fill-rule:evenodd;clip-rule:evenodd;stroke-linecap:round;stroke-linejoin:round;stroke-miterlimit:1.5;"><g id="typewriter"><g><path d="M5.523,20.519c17.253,3.758 33.909,3.885 49.994,0.547c0,0 -0.229,20.898 -0.306,27.922c-0.013,1.254 -1.041,2.26 -2.296,2.246c-7.966,-0.087 -34.669,-0.38 -44.258,-0.485c-0.919,-0.01 -1.796,-0.385 -2.439,-1.041c-0.642,-0.657 -0.998,-1.543 -0.988,-2.462c0.087,-7.931 0.293,-26.727 0.293,-26.727Z" style="fill:#22715d;stroke:#fff;stroke-width:2.44px;"/><g><path d="M13.223,31.219l34.406,0.377c0,0 -0.092,8.344 -0.128,11.676c-0.008,0.746 -0.62,1.344 -1.366,1.336c-5.391,-0.059 -25.365,-0.278 -31.349,-0.343c-0.453,-0.005 -0.884,-0.19 -1.201,-0.513c-0.316,-0.323 -0.491,-0.759 -0.486,-1.211c0.039,-3.532 0.124,-11.322 0.124,-11.322Z" style="fill:none;stroke:#fff;stroke-width:2.15px;"/><circle cx="18.473" cy="35.468" r="1.774" style="fill:#fff;"/><circle cx="23.181" cy="35.468" r="1.774" style="fill:#fff;"/><circle cx="18.473" cy="40.374" r="1.774" style="fill:#fff;"/><circle cx="23.181" cy="40.374" r="1.774" style="fill:#fff;"/><circle cx="37.528" cy="40.374" r="1.774" style="fill:#fff;"/><circle cx="42.236" cy="40.374" r="1.774" style="fill:#fff;"/><circle cx="27.89" cy="35.468" r="1.774" style="fill:#fff;"/><circle cx="32.598" cy="35.468" r="1.774" style="fill:#fff;"/><circle cx="37.307" cy="35.468" r="1.774" style="fill:#fff;"/><circle cx="42.015" cy="35.468" r="1.774" style="fill:#fff;"/><path d="M34.537,39.821c0,-0.431 -0.35,-0.782 -0.782,-0.782l-7.117,0c-0.432,0 -0.782,0.351 -0.782,0.782l0,1.106c0,0.432 0.35,0.782 0.782,0.782l7.117,0c0.432,0 0.782,-0.35 0.782,-0.782l0,-1.106Z" style="fill:#fff;"/><g><rect x="0.297" y="23.172" width="1.644" height="4.622" style="fill:#22715d;"/><rect x="1.119" y="24.844" width="3.118" height="1.278" style="fill:#22715d;"/></g></g></g><path d="M47.337,3.401c-11.196,-2.155 -22.515,-2.195 -33.965,0l0,20.999l33.965,0l0,-20.999Z" style="fill:#22715d;stroke:#fff;stroke-width:2.19px;"/><path d="M21.453,8.02c5.729,-1.034 11.521,-1.173 17.393,0" style="fill:none;stroke:#fff;stroke-width:2.15px;"/><path d="M21.453,14.269c5.729,-1.034 11.521,-1.173 17.393,0" style="fill:none;stroke:#fff;stroke-width:2.15px;"/><path d="M21.453,20.519c5.729,-1.034 11.521,-1.173 17.393,0" style="fill:none;stroke:#fff;stroke-width:2.15px;"/><path d="M11.328,24.4l37.987,0" style="fill:none;stroke:#fff;stroke-width:2.15px;"/><g><rect x="0.297" y="23.172" width="1.644" height="4.622" style="fill:#fff;"/><rect x="1.119" y="24.844" width="3.118" height="1.278" style="fill:#fff;"/></g><g><rect x="58.917" y="23.172" width="1.644" height="4.622" style="fill:#fff;"/><rect x="56.621" y="24.844" width="3.118" height="1.278" style="fill:#fff;"/></g><path d="M23.766,24.4c-0.668,0.436 -1.019,0.931 -1.019,1.434c0,1.583 3.409,2.868 7.608,2.868c4.199,0 7.608,-1.285 7.608,-2.868c0,-0.503 -0.352,-0.998 -1.02,-1.434l-13.177,0Z" style="fill:#fff;"/></g></svg>