<?xml version="1.0" encoding="UTF-8" standalone="no"?><!DOCTYPE svg PUBLIC "-//W3C//DTD SVG 1.1//EN" "http://www.w3.org/Graphics/SVG/1.1/DTD/svg11.dtd"><svg width="100%" height="100%" viewBox="0 0 61 53" version="1.1" xmlns="http://www.w3.org/2000/svg" xmlns:xlink="http://www.w3.org/1999/xlink" xml:space="preserve" xmlns:serif="http://www.serif.com/" style="fill-rule:evenodd;clip-rule:evenodd;stroke-linecap:round;stroke-linejoin:round;stroke-miterlimit:1.5;"><g id="typewriter"><g><path d="M5.443,20.591c17.253,3.758 33.909,3.885 49.994,0.548c0,0 -0.229,20.897 -0.306,27.921c-0.014,1.254 -1.042,2.26 -2.296,2.246c-7.966,-0.087 -34.669,-0.379 -44.258,-0.484c-0.919,-0.011 -1.796,-0.385 -2.439,-1.042c-0.643,-0.657 -0.998,-1.542 -0.988,-2.461c0.087,-7.932 0.293,-26.728 0.293,-26.728Z" style="fill:#fff;stroke:#22715d;stroke-width:2.44px;"/><g><path d="M13.143,31.292l34.406,0.376c0,0 -0.092,8.344 -0.128,11.676c-0.008,0.746 -0.62,1.344 -1.366,1.336c-5.391,-0.059 -25.365,-0.277 -31.349,-0.343c-0.453,-0.005 -0.884,-0.189 -1.201,-0.513c-0.316,-0.323 -0.491,-0.759 -0.486,-1.211c0.039,-3.532 0.124,-11.321 0.124,-11.321Z" style="fill:none;stroke:#22715d;stroke-width:2.15px;"/><circle cx="18.393" cy="35.54" r="1.774" style="fill:#22715d;"/><circle cx="23.101" cy="35.54" r="1.774" style="fill:#22715d;"/><circle cx="18.393" cy="40.447" r="1.774" style="fill:#22715d;"/><circle cx="23.101" cy="40.447" r="1.774" style="fill:#22715d;"/><circle cx="37.448" cy="40.447" r="1.774" style="fill:#22715d;"/><circle cx="42.156" cy="40.447" r="1.774" style="fill:#22715d;"/><circle cx="27.81" cy="35.54" r="1.774" style="fill:#22715d;"/><circle cx="32.518" cy="35.54" r="1.774" style="fill:#22715d;"/><circle cx="37.227" cy="35.54" r="1.774" style="fill:#22715d;"/><circle cx="41.935" cy="35.54" r="1.774" style="fill:#22715d;"/><path d="M34.457,39.894c0,-0.432 -0.35,-0.782 -0.782,-0.782l-7.117,0c-0.432,0 -0.782,0.35 -0.782,0.782l0,1.105c0,0.432 0.35,0.782 0.782,0.782l7.117,0c0.432,0 0.782,-0.35 0.782,-0.782l0,-1.105Z" style="fill:#22715d;"/><g><rect x="0.217" y="23.244" width="1.644" height="4.622" style="fill:#22715d;"/><rect x="1.039" y="24.916" width="3.118" height="1.278" style="fill:#22715d;"/></g></g></g><path d="M47.257,3.474c-11.196,-2.155 -22.515,-2.196 -33.965,0l0,20.998l33.965,0l0,-20.998Z" style="fill:#fff;stroke:#22715d;stroke-width:2.19px;"/><path d="M21.373,8.092c5.729,-1.034 11.521,-1.173 17.393,0" style="fill:none;stroke:#22715d;stroke-width:2.15px;"/><path d="M21.373,14.342c5.729,-1.034 11.521,-1.173 17.393,0" style="fill:none;stroke:#22715d;stroke-width:2.15px;"/><path d="M21.373,20.591c5.729,-1.034 11.521,-1.173 17.393,0" style="fill:none;stroke:#22715d;stroke-width:2.15px;"/><path d="M11.248,24.472l37.987,0" style="fill:none;stroke:#22715d;stroke-width:2.15px;"/><g><rect x="0.217" y="23.244" width="1.644" height="4.622" style="fill:#22715d;"/><rect x="1.039" y="24.916" width="3.118" height="1.278" style="fill:#22715d;"/></g><g><rect x="58.836" y="23.244" width="1.644" height="4.622" style="fill:#22715d;"/><rect x="56.541" y="24.916" width="3.118" height="1.278" style="fill:#22715d;"/></g><path d="M23.686,24.472c-0.668,0.436 -1.02,0.931 -1.02,1.434c0,1.583 3.41,2.869 7.609,2.869c4.199,0 7.608,-1.286 7.608,-2.869c0,-0.503 -0.352,-0.998 -1.02,-1.434l-13.177,0Z" style="fill:#22715d;"/></g></svg>