<?xml version="1.0" encoding="UTF-8" standalone="no"?><!DOCTYPE svg PUBLIC "-//W3C//DTD SVG 1.1//EN" "http://www.w3.org/Graphics/SVG/1.1/DTD/svg11.dtd"><svg width="100%" height="100%" viewBox="0 0 1626 465" version="1.1" xmlns="http://www.w3.org/2000/svg" xmlns:xlink="http://www.w3.org/1999/xlink" xml:space="preserve" xmlns:serif="http://www.serif.com/" style="fill-rule:evenodd;clip-rule:evenodd;stroke-linecap:round;stroke-linejoin:round;stroke-miterlimit:1.5;"><rect id="Artboard3" x="0.578" y="0" width="1625.26" height="464.03" style="fill:none;"/><g id="foodie-q__logo-v2"><circle id="bowl" cx="1362.15" cy="223.345" r="194.656" style="fill:#3661aa;stroke:#4879cb;stroke-width:27px;"/><text x="16.282px" y="411.315px" style="font-family:'AppleMyungjo';font-size:489.482px;fill:#00a4ff;">foodie</text><g id="spoon"><path d="M1342.52,203.678c15.773,-16.263 49.676,-9.005 75.661,16.197c25.986,25.203 34.277,58.868 18.504,75.131c-15.773,16.263 -49.676,9.005 -75.661,-16.197c-25.986,-25.203 -34.277,-58.868 -18.504,-75.131Z" style="fill:#00a4ff;"/><path d="M1435.42,285.208l-8.12,7.877c0,0 97.283,109.425 132.902,149.49c3.341,3.759 8.085,5.973 13.112,6.121c5.027,0.147 9.893,-1.785 13.449,-5.341c0.001,-0.001 0.001,-0.001 0.002,-0.002c3.577,-3.577 5.51,-8.476 5.34,-13.531c-0.17,-5.055 -2.428,-9.814 -6.237,-13.142c-40.467,-35.363 -150.448,-131.472 -150.448,-131.472Z" style="fill:#00a4ff;"/></g><g><path d="M522.109,173.041c0,0 -18.605,-72.702 -34.46,-99.131c-6.089,-10.15 -19.274,-13.447 -29.424,-7.358c-10.15,6.089 -13.447,19.273 -7.358,29.423c15.855,26.43 71.242,77.066 71.242,77.066Z" style="fill:#ef4759;fill-opacity:0.866667;"/><path d="M538.181,173.041c0,0 54.53,-51.557 69.94,-78.248c5.918,-10.251 2.401,-23.378 -7.85,-29.296c-10.25,-5.919 -23.377,-2.401 -29.296,7.85c-15.41,26.691 -32.794,99.694 -32.794,99.694Z" style="fill:#ef4759;fill-opacity:0.866667;"/><path d="M530.333,172.205c0,0 21.446,-71.915 21.446,-102.736c0,-11.836 -9.61,-21.446 -21.446,-21.446c-11.837,0 -21.446,9.61 -21.446,21.446c0,30.821 21.446,102.736 21.446,102.736Z" style="fill:#ef9b47;fill-opacity:0.866667;"/></g><g><path d="M293.425,173.041c0,0 -18.605,-72.702 -34.46,-99.131c-6.089,-10.15 -19.273,-13.447 -29.423,-7.358c-10.15,6.089 -13.447,19.273 -7.358,29.423c15.855,26.43 71.241,77.066 71.241,77.066Z" style="fill:#ef4759;fill-opacity:0.866667;"/><path d="M309.497,173.041c0,0 54.53,-51.557 69.941,-78.248c5.918,-10.251 2.4,-23.378 -7.85,-29.296c-10.251,-5.919 -23.378,-2.401 -29.296,7.85c-15.41,26.691 -32.795,99.694 -32.795,99.694Z" style="fill:#ef4759;fill-opacity:0.866667;"/><path d="M301.649,172.205c0,0 21.446,-71.915 21.446,-102.736c0,-11.836 -9.609,-21.446 -21.446,-21.446c-11.836,0 -21.446,9.61 -21.446,21.446c0,30.821 21.446,102.736 21.446,102.736Z" style="fill:#ef9b47;fill-opacity:0.866667;"/></g></g></svg>